HIERARCHY
ROOT pelvis
{
	OFFSET 0.00 0.00 0.00
	CHANNELS 6 Xposition Yposition Zposition Xrotation Yrotation Zrotation
	JOINT lfemur
	{
		OFFSET 0.00000 3.26371 0.00000
		CHANNELS 3 Xrotation Yrotation Zrotation
		JOINT ltibia
		{
			OFFSET 0.00000 0.00000 -17.39272
			CHANNELS 3 Xrotation Yrotation Zrotation
			JOINT lfoot
			{
				OFFSET 0.00000 0.00000 -17.72520
				CHANNELS 3 Xrotation Yrotation Zrotation
				JOINT ltoes
				{
					OFFSET 4.21806 0.00000 0.00000
					CHANNELS 3 Xrotation Yrotation Zrotation
				}
			}
		}
	}
	JOINT rfemur
	{
		OFFSET 0.00000 -3.26371 0.00000
		CHANNELS 3 Xrotation Yrotation Zrotation
		JOINT rtibia
		{
			OFFSET 0.00000 0.00000 -17.39272
			CHANNELS 3 Xrotation Yrotation Zrotation
			JOINT rfoot
			{
				OFFSET 0.00000 0.00000 -17.72520
				CHANNELS 3 Xrotation Yrotation Zrotation
				JOINT rtoes
				{
					OFFSET 4.21806 0.00000 0.00000
					CHANNELS 3 Xrotation Yrotation Zrotation
				}
			}
		}
	}
	JOINT thorax
	{
		OFFSET -1.96850 0.00000 6.16593
		CHANNELS 6 Xposition Yposition Zposition Xrotation Yrotation Zrotation
		JOINT head
		{
			OFFSET 0.00000 0.00000 18.21355
			CHANNELS 6 Xposition Yposition Zposition Xrotation Yrotation Zrotation
		}
		JOINT lclavicle
		{
			OFFSET 0.00000 0.00000 15.13875
			CHANNELS 3 Xrotation Yrotation Zrotation
			JOINT lhumerus
			{
				OFFSET 0.00000 7.18963 -1.52650
				CHANNELS 3 Xrotation Yrotation Zrotation
				JOINT lradius
				{
					OFFSET 0.00000 0.00000 -10.12096
					CHANNELS 3 Xrotation Yrotation Zrotation
					JOINT lhand
					{
						OFFSET 0.00000 0.00000 -10.45726
						CHANNELS 3 Xrotation Yrotation Zrotation
					}
				}
			}
		}
		JOINT rclavicle
		{
			OFFSET 0.00000 0.00000 15.13875
			CHANNELS 3 Xrotation Yrotation Zrotation
			JOINT rhumerus
			{
				OFFSET 0.00000 -7.18963 -1.52650
				CHANNELS 3 Xrotation Yrotation Zrotation
				JOINT rradius
				{
					OFFSET 0.00000 0.00000 -10.12096
					CHANNELS 3 Xrotation Yrotation Zrotation
					JOINT rhand
					{
						OFFSET 0.00000 0.00000 -10.45726
						CHANNELS 3 Xrotation Yrotation Zrotation
					}
				}
			}
		}
	}
}
MOTION
Frames: 20
Frame Time: 0.008333
 -78.7656 -13.2868 32.6144 4.2427 -1.1704 61.7323 19.9361 1.1024 16.9003 -0.0000 42.7588 0.0000 0.0000 -6.2456 5.6642 0.0000 -41.1291 -0.0000 -21.7158 -21.2480 7.2761 -0.0000 41.4209 0.0000 0.0000 2.9297 17.5044 0.0000 -45.0392 -0.0000 -80.3049 -15.3594 38.4104 3.2043 9.1619 -16.2892 -78.8803 -12.1082 57.0122 11.9311 3.2412 -57.4396 -13.8403 0.0000 -6.8510 29.4395 7.3472 0.6038 0.0000 -33.4212 -36.1685 -2.4891 -6.7684 -0.0000 13.8512 -0.0000 -9.0054 -36.2457 0.2643 7.8802 -0.0000 -29.9103 25.4104 21.2861 0.7148 0.0000
 -78.7666 -13.2884 32.6309 4.2227 -1.1811 61.5631 19.8853 1.2326 16.9413 -0.0000 42.6158 0.0000 -0.0000 -6.1735 6.0207 0.0000 -41.0733 -0.0000 -21.7496 -21.2670 7.1358 -0.0000 41.2533 0.0000 -0.0000 3.0093 17.7962 0.0000 -44.9464 -0.0000 -80.3187 -15.3560 38.4366 3.2466 9.0287 -16.5596 -78.8773 -12.1520 57.0444 11.9257 3.4371 -57.3418 -13.8804 0.0000 -7.1004 29.6096 7.3025 0.7362 -0.0000 -32.1146 -37.1088 -2.3878 -7.1675 -0.0000 13.8593 -0.0000 -8.9656 -36.2985 0.3106 7.6625 -0.0000 -29.1935 24.5616 20.5113 0.6023 0.0000
 -78.7663 -13.2894 32.6509 4.2047 -1.1724 61.3889 19.8609 1.3601 17.1568 -0.0000 42.4191 0.0000 -0.0000 -6.1420 5.6969 0.0000 -41.0026 0.0000 -21.7679 -21.2714 7.0847 -0.0000 41.0535 0.0000 0.0000 3.0899 18.0127 0.0000 -44.8867 -0.0000 -80.3400 -15.3530 38.4587 3.3032 8.9224 -16.6863 -78.8682 -12.1918 57.0689 11.9006 3.4889 -57.3301 -13.9422 0.0000 -7.2780 29.7880 7.0666 0.7474 0.0000 -30.8931 -38.1597 -2.5236 -7.3062 -0.0000 13.8732 -0.0000 -8.9534 -36.3385 0.5231 7.0936 0.0000 -28.8016 23.9790 20.0504 0.8975 -0.0000
 -78.7649 -13.2973 32.6675 4.1836 -1.1762 61.1643 19.8172 1.4893 17.2961 -0.0000 42.2589 0.0000 -0.0000 -6.0463 5.7926 0.0000 -41.0453 -0.0000 -21.7102 -21.3283 7.1711 -0.0000 40.9075 0.0000 -0.0000 3.1635 18.1312 0.0000 -44.8244 -0.0000 -80.3402 -15.3493 38.4777 3.2967 8.7905 -16.8447 -78.8694 -12.2277 57.0928 11.9397 3.6143 -57.3209 -13.9815 0.0000 -7.3737 29.9928 6.8882 0.8096 0.0000 -29.7446 -39.1841 -2.7393 -7.2856 -0.0000 13.8936 -0.0000 -8.9595 -36.3061 0.6195 6.6025 -0.0000 -28.2471 23.5542 19.9102 1.0354 0.0000
 -78.7586 -13.3044 32.6815 4.1635 -1.1674 60.8957 19.7805 1.6496 17.5085 -0.0000 42.0856 0.0000 0.0000 -5.9822 5.8221 0.0000 -40.9724 -0.0000 -21.6544 -21.4469 7.2640 -0.0000 40.8317 0.0000 -0.0000 3.2633 18.2931 0.0000 -44.8020 -0.0000 -80.3611 -15.3515 38.4942 3.3457 8.7047 -16.7838 -78.8778 -12.2711 57.1096 11.8716 3.6439 -57.3952 -14.0460 0.0000 -7.5366 30.1987 6.5078 0.7336 0.0000 -28.5419 -40.0840 -2.8853 -6.8976 -0.0000 13.8893 -0.0000 -8.8082 -36.3257 1.0385 6.0059 -0.0000 -27.9843 23.1400 19.7698 1.6762 0.0000
 -78.7533 -13.3131 32.6907 4.1541 -1.1767 60.7052 19.7846 1.7577 17.6659 -0.0000 41.9931 0.0000 0.0000 -5.9108 5.7985 0.0000 -41.0613 -0.0000 -21.6285 -21.5189 7.2439 -0.0000 40.7624 0.0000 0.0000 3.2723 18.4716 0.0000 -44.7045 -0.0000 -80.3663 -15.3516 38.5058 3.3388 8.6040 -16.8935 -78.8670 -12.3017 57.1286 11.9355 3.6797 -57.3576 -14.0371 0.0000 -7.7026 30.3469 6.3939 0.8694 0.0000 -27.6914 -40.8499 -3.4146 -8.1423 -0.0000 13.8864 -0.0000 -8.7821 -36.2822 1.1394 5.5212 -0.0000 -27.3995 22.6595 19.4692 1.5216 0.0000
 -78.7535 -13.3227 32.6991 4.1398 -1.1902 60.4993 19.7686 1.8575 17.8010 -0.0000 41.9112 0.0000 -0.0000 -5.8578 5.8181 0.0000 -41.0578 -0.0000 -21.5838 -21.6048 7.2962 -0.0000 40.6891 0.0000 0.0000 3.3327 18.6558 0.0000 -44.6754 -0.0000 -80.3546 -15.3488 38.5156 3.3136 8.4756 -16.9960 -78.8559 -12.3254 57.1481 12.0188 3.7572 -57.3180 -14.0568 0.0000 -7.7609 30.5528 6.2025 1.0323 0.0000 -26.7899 -41.6886 -3.7866 -8.3629 -0.0000 13.8806 -0.0000 -8.7274 -36.2606 1.3037 5.1966 -0.0000 -26.8974 22.0082 19.4150 1.5557 -0.0000
 -78.7493 -13.3308 32.7024 4.1371 -1.1925 60.3264 19.7796 1.9472 17.9783 -0.0000 41.8575 0.0000 -0.0000 -5.8176 5.7752 0.0000 -41.0796 -0.0000 -21.5430 -21.6802 7.3740 -0.0000 40.6500 -0.0000 -0.0000 3.3648 18.7534 0.0000 -44.6287 -0.0000 -80.3508 -15.3492 38.5240 3.2981 8.3803 -17.0435 -78.8510 -12.3634 57.1618 12.0567 3.8501 -57.1112 -14.0717 0.0000 -7.8582 30.7212 5.9430 1.2125 0.0000 -25.8954 -42.6165 -4.0048 -8.4589 -0.0000 13.9099 -0.0000 -8.5830 -36.2249 1.6543 4.5589 0.0000 -26.5265 21.8887 19.4770 1.9778 0.0000
 -78.7564 -13.3426 32.7053 4.1454 -1.2025 60.2449 19.7602 1.9709 17.9885 -0.0000 41.8506 0.0000 -0.0000 -5.8000 5.7936 0.0000 -41.0707 -0.0000 -21.5470 -21.7194 7.3638 -0.0000 40.6091 0.0000 0.0000 3.4679 18.8859 0.0000 -44.7297 -0.0000 -80.3580 -15.3586 38.5271 3.3045 8.3235 -17.1500 -78.8553 -12.4043 57.1770 12.0750 3.9434 -57.0917 -14.0564 0.0000 -8.0313 30.8825 5.7604 1.3390 0.0000 -25.2805 -43.2412 -4.4465 -8.4672 -0.0000 13.8842 -0.0000 -8.5267 -36.1909 1.8330 4.3889 -0.0000 -26.0923 21.5898 19.4557 2.4486 -0.0000
 -78.7542 -13.3508 32.7066 4.1607 -1.2075 60.1263 19.7533 2.0294 18.0632 -0.0000 41.8362 0.0000 -0.0000 -5.8054 5.7859 0.0000 -41.1291 -0.0000 -21.5321 -21.7673 7.3936 -0.0000 40.5935 0.0000 0.0000 3.4560 18.9565 0.0000 -44.6384 -0.0000 -80.3580 -15.3595 38.5315 3.2903 8.2372 -17.2099 -78.8680 -12.4278 57.1804 12.0955 3.9339 -57.2810 -14.0821 0.0000 -8.2272 31.0257 5.6000 1.8405 0.0000 -24.6338 -44.0866 -4.8806 -8.5597 -0.0000 13.8708 -0.0000 -8.5084 -36.1111 2.0105 3.9270 -0.0000 -25.6530 21.6730 19.0454 2.2665 0.0000
 -78.7512 -13.3595 32.7056 4.1763 -1.2125 59.9484 19.7570 2.1140 18.2280 -0.0000 41.8293 0.0000 -0.0000 -5.8022 5.7522 0.0000 -41.0186 -0.0000 -21.4779 -21.8575 7.5260 -0.0000 40.6086 -0.0000 0.0000 3.4858 19.0252 0.0000 -44.6538 -0.0000 -80.3587 -15.3579 38.5326 3.2825 8.1688 -17.2142 -78.8683 -12.4549 57.1851 12.1161 3.9113 -57.2636 -14.0924 0.0000 -8.3266 31.1304 5.3706 2.2572 0.0000 -24.0661 -44.7490 -5.1288 -8.5053 0.0000 13.8252 -0.0000 -8.4433 -36.0379 2.2325 3.6166 0.0000 -25.2603 21.8337 19.1745 2.3907 0.0000
 -78.7523 -13.3705 32.7024 4.1948 -1.2208 59.8644 19.7616 2.1318 18.3123 -0.0000 41.8584 0.0000 -0.0000 -5.7614 5.7971 0.0000 -41.1255 -0.0000 -21.4455 -21.9015 7.6336 -0.0000 40.6038 0.0000 -0.0000 3.5439 19.0541 0.0000 -44.7549 -0.0000 -80.3629 -15.3638 38.5306 3.2803 8.1161 -17.2860 -78.8742 -12.4849 57.1927 12.1389 3.9596 -57.2642 -14.0786 0.0000 -8.4245 31.2718 5.1627 2.5029 0.0000 -23.7050 -44.9635 -5.6511 -8.5249 -0.0000 13.8252 -0.0000 -8.3855 -36.0471 2.3169 3.2541 -0.0000 -24.8171 21.5820 19.4261 2.6828 0.0000
 -78.7550 -13.3827 32.6990 4.2111 -1.2334 59.7890 19.7508 2.1439 18.3003 -0.0000 41.8884 0.0000 0.0000 -5.7673 5.8535 0.0000 -41.1787 -0.0000 -21.4029 -21.9463 7.7234 -0.0000 40.6179 0.0000 -0.0000 3.5691 19.0644 0.0000 -44.7904 -0.0000 -80.3667 -15.3688 38.5290 3.2762 8.0614 -17.4056 -78.8705 -12.5227 57.1804 12.0327 3.9658 -57.1503 -14.0904 0.0000 -8.4608 31.4019 4.9458 2.8426 0.0000 -23.3946 -45.3469 -5.7302 -8.3408 -0.0000 13.8296 -0.0000 -8.2918 -36.0319 2.4371 2.9820 0.0000 -24.4352 21.7834 19.5561 2.8385 0.0000
 -78.7583 -13.3920 32.6950 4.2375 -1.2448 59.7592 19.7713 2.1341 18.3547 -0.0000 41.9560 0.0000 0.0000 -5.7685 5.8201 0.0000 -41.2183 -0.0000 -21.4064 -21.9586 7.7312 -0.0000 40.6288 0.0000 -0.0000 3.6202 19.0982 0.0000 -44.8522 -0.0000 -80.3622 -15.3834 38.5200 3.2537 8.0236 -17.4095 -78.9059 -12.5501 57.1818 12.1303 4.0013 -57.2648 -14.0532 0.0000 -8.5725 31.5508 4.6922 2.9562 0.0000 -23.1247 -45.3284 -5.7508 -8.2463 -0.0000 13.8039 -0.0000 -8.3000 -35.9681 2.6305 2.8573 -0.0000 -24.2056 21.7956 19.5228 2.7631 0.0000
 -78.7639 -13.4028 32.6910 4.2602 -1.2644 59.7268 19.7685 2.1323 18.3337 -0.0000 42.0059 0.0000 0.0000 -5.8009 5.8709 0.0000 -41.2149 -0.0000 -21.4035 -21.9921 7.7149 -0.0000 40.6620 0.0000 -0.0000 3.6403 19.1559 0.0000 -44.8467 -0.0000 -80.3621 -15.3944 38.5097 3.2402 7.9911 -17.4487 -78.9073 -12.5702 57.1768 12.1560 3.9381 -57.2985 -14.0231 0.0000 -8.6523 31.6671 4.4938 3.1385 0.0000 -23.0378 -45.3399 -5.8467 -8.2955 -0.0000 13.7988 -0.0000 -8.2671 -35.9432 2.7657 2.7690 -0.0000 -23.8882 22.0289 19.3708 2.5218 0.0000
 -78.7696 -13.4149 32.6836 4.2940 -1.2819 59.6945 19.7788 2.1294 18.3323 -0.0000 42.0773 0.0000 -0.0000 -5.8507 5.8644 0.0000 -41.1386 -0.0000 -21.4063 -22.0336 7.6953 -0.0000 40.7299 0.0000 0.0000 3.6554 19.2186 0.0000 -44.8336 -0.0000 -80.3654 -15.4063 38.5007 3.2360 7.9785 -17.4767 -78.9056 -12.6006 57.1636 12.0900 3.8888 -57.2813 -14.0117 0.0000 -8.7321 31.7754 4.2842 3.4731 0.0000 -23.0271 -45.2941 -5.8587 -8.2233 -0.0000 13.7918 -0.0000 -8.2579 -35.8906 2.8519 2.5552 -0.0000 -23.6142 22.4432 19.5331 2.4968 0.0000
 -78.7778 -13.4252 32.6758 4.3257 -1.2962 59.6563 19.7922 2.1431 18.3612 -0.0000 42.1358 0.0000 -0.0000 -5.7297 6.1524 0.0000 -41.2219 -0.0000 -21.4196 -22.0783 7.6662 -0.0000 40.7887 0.0000 0.0000 3.6648 19.2957 0.0000 -44.8043 -0.0000 -80.3734 -15.4168 38.4902 3.2430 7.9625 -17.5183 -78.9176 -12.6293 57.1580 12.0838 3.9056 -57.2648 -14.0025 0.0000 -8.8079 31.8745 4.0955 3.6336 0.0000 -23.0864 -45.0582 -5.7075 -7.9860 -0.0000 13.7545 -0.0000 -8.2888 -35.8522 2.8312 2.6305 -0.0000 -23.2630 22.7503 19.5955 2.4953 0.0000
 -78.7852 -13.4390 32.6688 4.3591 -1.3074 59.6066 19.7927 2.1360 18.3807 -0.0000 42.2156 0.0000 0.0000 -5.7241 6.1663 0.0000 -41.2433 -0.0000 -21.4180 -22.1252 7.6915 -0.0000 40.8293 0.0000 -0.0000 3.6833 19.3347 0.0000 -44.8019 -0.0000 -80.3878 -15.4321 38.4785 3.2647 7.9861 -17.4612 -78.9246 -12.6577 57.1485 12.0404 3.8289 -57.2751 -14.0207 0.0000 -8.8490 31.9877 3.8066 3.7675 0.0000 -23.2607 -44.8413 -5.5326 -6.7811 -0.0000 13.7365 -0.0000 -8.2737 -35.8253 2.9071 2.5348 -0.0000 -23.0870 23.1075 19.5510 2.2931 0.0000
 -78.7899 -13.4493 32.6611 4.4046 -1.3133 59.5578 19.8409 2.1341 18.5578 -0.0000 42.3238 0.0000 0.0000 -5.9005 5.7370 0.0000 -41.2507 -0.0000 -21.4286 -22.1567 7.7074 -0.0000 40.8790 0.0000 -0.0000 3.6736 19.3733 0.0000 -44.7914 -0.0000 -80.3985 -15.4478 38.4668 3.2591 8.0078 -17.4122 -78.9383 -12.6852 57.1413 12.0504 3.8304 -57.2934 -14.0414 0.0000 -8.8703 32.1260 3.5169 3.8115 0.0000 -23.4539 -44.3146 -5.4311 -5.6712 0.0000 13.7215 -0.0000 -8.1971 -35.8100 3.0352 2.5788 -0.0000 -22.9224 23.2940 19.6295 2.3895 0.0000
 -78.7968 -13.4613 32.6517 4.4340 -1.3324 59.4976 19.8508 2.1485 18.5629 -0.0000 42.3876 0.0000 -0.0000 -5.8204 6.0143 0.0000 -41.2931 -0.0000 -21.4200 -22.2026 7.7283 -0.0000 40.9277 0.0000 -0.0000 3.6798 19.4225 0.0000 -44.7941 -0.0000 -80.4039 -15.4583 38.4544 3.2512 7.9952 -17.4047 -78.9462 -12.7060 57.1347 12.1095 3.8120 -57.2348 -14.0491 0.0000 -8.8454 32.2190 3.3066 3.7961 0.0000 -23.7718 -43.9007 -5.0080 -5.2335 -0.0000 13.7286 -0.0000 -8.1754 -35.8045 3.0551 2.5832 -0.0000 -22.7471 23.7214 19.8423 2.2928 -0.0000
